# xmcd
#
# Track frame offsets:
#  150
#  17124
#  36151
#  50892
#  65567
#  84774
#  102206
#  125677
#  139697
#  155882
#  170167
#  187805
#  210341
#  226308
#  241509
#  266094
#  280398
#  299744
#
# Disc length: 4232 seconds
#
# Revision: 0
# Processed by: cddbd v1.5.2PL0 Copyright (c) Steve Scherf et al.
# Submitted via: AltoMP3_Maker 3.0
#
DISCID=0b108612
DTITLE=Dave Mell Blues Band - Blues With A Feeling
DYEAR=1900
DGENRE=
TTITLE0=Buzz Me
TTITLE1=Blues With A Feeling
TTITLE2=I Can't Get Next To You
TTITLE3=No More Doggin'
TTITLE4=Always The Same
TTITLE5=Town Without Pity
TTITLE6=Stop Breakin' Down
TTITLE7=Keep On Churnin'
TTITLE8=Don't Go No Further
TTITLE9=Turn Back The Hands of Time
TTITLE10=The Stumble
TTITLE11=Five Long Years
TTITLE12=Sooner Or Later
TTITLE13=One Sunny Day
TTITLE14=Rollin' And Tumblin'
TTITLE15=Oh Well
TTITLE16=Like It This Way
TTITLE17=Someday The Sun Won't Shine For You
EXTD=
EXTT0=
EXTT1=
EXTT2=
EXTT3=
EXTT4=
EXTT5=
EXTT6=
EXTT7=
EXTT8=
EXTT9=
EXTT10=
EXTT11=
EXTT12=
EXTT13=
EXTT14=
EXTT15=
EXTT16=
EXTT17=
PLAYORDER=
